<svg xmlns="http://www.w3.org/2000/svg" width="165.417" height="61.312" viewBox="0 0 165.417 61.312">
  <g id="Group_68180" data-name="Group 68180" transform="translate(-1619 -6599.241)">
    <text id="الجار_الله" data-name="الجار الله" transform="translate(1619 6635.396)" fill="#1a1a1a" font-size="24" font-family="ElMessiri-Bold, El Messiri" font-weight="700"><tspan x="0" y="0">الجار الله</tspan></text>
    <g id="Group_67736" data-name="Group 67736" transform="translate(-9.601 6572.102)">
      <g id="Group_675" data-name="Group 675" transform="translate(1728.983 27.139)">
        <g id="Group_3" data-name="Group 3">
          <path id="Path_1" data-name="Path 1" d="M236.757,152.807c-1.37.373-1.915-.348-2.5-1.513-3.914-7.661-10.156-12.189-18.715-13.275a23.873,23.873,0,0,0-24.9,14.245.744.744,0,0,1-.831.552c-.966-.044-2.069.251-2.866-.124s-1.3-1.393-1.915-2.131c-1.087-1.306-1.08-1.308-.228-2.77.784-1.348,1.567-2.7,2.331-4.057a.62.62,0,0,1,.789-.367c1.16.228,2.33.394,3.493.606a1.062,1.062,0,0,0,1.113-.381,22.829,22.829,0,0,1,1.9-1.894,1.006,1.006,0,0,0,.371-1.045c-.214-1.161-.376-2.333-.6-3.493a.67.67,0,0,1,.376-.85q2.535-1.419,5.034-2.906a.664.664,0,0,1,.926.1c.9.768,1.832,1.494,2.722,2.264a.98.98,0,0,0,1.088.193,20.8,20.8,0,0,1,2.6-.7,1.058,1.058,0,0,0,.911-.824c.367-1.073.8-2.126,1.165-3.2a.725.725,0,0,1,.818-.571c1.915.026,3.831.023,5.746,0a.694.694,0,0,1,.777.522c.4,1.139.839,2.264,1.241,3.4a.871.871,0,0,0,.737.639c.946.2,1.879.467,2.8.754a.886.886,0,0,0,.959-.2c.912-.787,1.861-1.532,2.786-2.314a.639.639,0,0,1,.871-.1q2.528,1.5,5.095,2.943a.627.627,0,0,1,.362.792c-.232,1.182-.4,2.377-.616,3.563a.963.963,0,0,0,.348.992,26.184,26.184,0,0,1,1.938,1.957,1,1,0,0,0,1.045.366c1.161-.212,2.333-.376,3.491-.6a.665.665,0,0,1,.848.38q1.424,2.535,2.911,5.032a.673.673,0,0,1-.1.928c-.7.8-1.393,1.614-2.025,2.466a2.532,2.532,0,0,1-1.374.636S237.065,152.807,236.757,152.807Z" transform="translate(-184.188 -130.669)" fill="#fb2b00"/>
          <path id="Path_2" data-name="Path 2" d="M248.424,213.115a19.226,19.226,0,0,1-5.05-.566,52.728,52.728,0,0,0-6.571-1.393,9.849,9.849,0,0,0-6.749,1.814l-.535.371a6.268,6.268,0,0,1,1.651-3.679c.55-.613,1.175-1.16,1.762-1.741a2.349,2.349,0,0,0,.794-1.228c.049-.287.249-.36.474-.449a35.865,35.865,0,0,1,11.859-2.774,15.105,15.105,0,0,1,9.1,2.6c1.7,1.142,3.347,2.361,4.983,3.606a.782.782,0,0,1,.12.186l-5.906.683-.031-.092a9.857,9.857,0,0,0,.98-.587c.475-.362.538-.855.084-1.195-4.353-3.261-8.506-4.548-13.268-2.128-.829.421-.836.463-.073,1.008a13.668,13.668,0,0,0,4.431,1.8c.226.064.456.115.818.205a5.643,5.643,0,0,1-3.146.441,32.561,32.561,0,0,1-4.127-.989,8.275,8.275,0,0,0-4.4-.24.846.846,0,0,0-.575.294c2.786-.1,5.243.919,7.71,1.924A44.091,44.091,0,0,0,248.424,213.115Z" transform="translate(-221.627 -190.784)" fill="#060055"/>
          <path id="Path_3" data-name="Path 3" d="M352.2,246.757c-3.381-1.755-6.986-1.353-10.553-1.161a58.019,58.019,0,0,1-8.835.2,9.756,9.756,0,0,1-4.48-1.41,2.975,2.975,0,0,1-.968-.871,15.825,15.825,0,0,0,4.094.714,60.914,60.914,0,0,0,8.464-.62,25.005,25.005,0,0,1,7.334-.063A6.95,6.95,0,0,1,352.2,246.757Z" transform="translate(-302.431 -223.686)" fill="#fb2b00"/>
        </g>
        <g id="Group_2" data-name="Group 2" transform="translate(0 42.308)">
          <path id="Path_4" data-name="Path 4" d="M187.393,373.667c1.045,0,2.089.035,3.12-.016a1.05,1.05,0,0,1,1.066.582,23.706,23.706,0,0,0,14.461,10.534,24.015,24.015,0,0,0,26.134-10.317,1.451,1.451,0,0,1,1.445-.8c2.079.056,4.16.017,6.241.023.81,0,.925.211.522.914-.954,1.658-1.915,3.308-2.854,4.975a.64.64,0,0,1-.825.4c-1.177-.246-2.373-.4-3.557-.62a.939.939,0,0,0-.982.348,18.681,18.681,0,0,1-1.9,1.9,1.123,1.123,0,0,0-.4,1.231c.216,1.16.381,2.33.611,3.482a.538.538,0,0,1-.315.674c-1.741.992-3.482,1.988-5.212,3.005a.543.543,0,0,1-.74-.071c-.954-.811-1.94-1.586-2.889-2.4a.808.808,0,0,0-.883-.185c-.945.294-1.9.569-2.868.775a.85.85,0,0,0-.716.646c-.407,1.158-.871,2.3-1.271,3.455a.582.582,0,0,1-.663.458c-1.962-.019-3.925-.028-5.887,0a.675.675,0,0,1-.745-.55c-.409-1.156-.86-2.3-1.268-3.455a.726.726,0,0,0-.639-.545,18.031,18.031,0,0,1-2.934-.79.724.724,0,0,0-.825.155c-.949.817-1.934,1.591-2.887,2.4a.579.579,0,0,1-.8.092q-2.554-1.515-5.145-2.972a.619.619,0,0,1-.348-.789c.235-1.181.4-2.373.615-3.559a.94.94,0,0,0-.336-.984,22.244,22.244,0,0,1-1.952-1.948,1.036,1.036,0,0,0-1.109-.362c-1.184.218-2.377.39-3.557.622a.53.53,0,0,1-.674-.308c-.991-1.741-2-3.482-3-5.224-.294-.522-.139-.768.486-.773C185.075,373.658,186.235,373.667,187.393,373.667Z" transform="translate(-183.284 -373.645)" fill="#060055"/>
          <path id="Path_5" data-name="Path 5" d="M317,381.786c.5-.336,1.315.9,1.605-.294.247-1.015-.846-.611-1.182-1.033a1.27,1.27,0,0,1,2.149.31,3.749,3.749,0,0,0,1.612,1.517c1.029.573,2.058,1.149,3.066,1.76a3.333,3.333,0,0,0,2.156.669c.688-.071,1.188.348,1.431,1.134-.348-.094-.646-.162-.93-.249-.359-.108-.644-.11-.75.348-.1.425-.056.74.449.845.275.057.542.157.82.24a1.373,1.373,0,0,1-2.338-.388,3.068,3.068,0,0,0-1.283-1.257c-1.318-.731-2.621-1.492-3.918-2.264a1.786,1.786,0,0,0-1.191-.286A1.4,1.4,0,0,1,317,381.786Z" transform="translate(-293.717 -378.891)" fill="#060055"/>
        </g>
      </g>
      <path id="Path_6" data-name="Path 6" d="M316.93,405.085a1.4,1.4,0,0,1,1.665-1,1.632,1.632,0,0,0,1.254-.313.988.988,0,0,1,1.428,0,4.956,4.956,0,0,0,.656.4c-.348.2-.643.39-.951.549a3.134,3.134,0,0,0-1.393,1.339,1.375,1.375,0,0,1-2.29.407c.376-.42,1.618-.017,1.207-1.147C318.161,404.343,317.465,405.428,316.93,405.085Z" transform="translate(1434.63 -328.847)" fill="#060055"/>
      <path id="Path_7" data-name="Path 7" d="M350.11,382.85c.467-.273.838-.522,1.233-.717a2.448,2.448,0,0,0,1.069-1.085,1.406,1.406,0,0,1,2.33-.522c-.348.458-1.635.061-1.2,1.191.36.947,1.045-.1,1.555.158a1.374,1.374,0,0,1-1.673,1.066,1.49,1.49,0,0,0-1.186.284,1.033,1.033,0,0,1-1.489.009A5.093,5.093,0,0,0,350.11,382.85Z" transform="translate(1407.227 -309.562)" fill="#060055"/>
      <g id="Group_7" data-name="Group 7" transform="translate(1719.612 59.033)">
        <g id="Group_6" data-name="Group 6">
          <g id="Group_5" data-name="Group 5">
            <path id="Path_8" data-name="Path 8" d="M138.041,311.079l-3.521-.174v-.078c2.978-.118,5.957-.232,8.934-.362.522-.023.437.27.381.582a.348.348,0,0,1-.27.3,5.465,5.465,0,0,1-2.681-.117l-.066-.014h-.068C139.853,311.023,138.937,311.253,138.041,311.079Z" transform="translate(-134.334 -310.463)" fill="#fb2b00"/>
            <path id="Path_9" data-name="Path 9" d="M139.309,315.632l.7-.012a6.56,6.56,0,0,1,2.478-.111c.3,0,.331.273.223.531-.061.284-.228.333-.522.32-2.911-.125-5.823-.23-8.734-.435l3.984-.2C138.057,315.6,138.693,315.775,139.309,315.632Z" transform="translate(-133.45 -314.577)" fill="#fb2b00"/>
          </g>
          <path id="Path_10" data-name="Path 10" d="M173.781,314.648c.057-.38-.134-.47-.477-.458-.742.028-1.484.028-2.224.038v-.289q1.123,0,2.248.014c.254,0,.522.064.705-.193A1.871,1.871,0,0,1,173.781,314.648Z" transform="translate(-164.528 -313.186)" fill="#fb2b00"/>
          <path id="Path_11" data-name="Path 11" d="M154.74,313.927a12.358,12.358,0,0,1,2.708.124A9.479,9.479,0,0,1,154.74,313.927Z" transform="translate(-151.033 -313.311)" fill="#fb2b00"/>
          <path id="Path_12" data-name="Path 12" d="M158.23,316.31a5.813,5.813,0,0,1-1.87.1A4.768,4.768,0,0,1,158.23,316.31Z" transform="translate(-152.371 -315.256)" fill="#fb2b00"/>
        </g>
        <g id="Group_4" data-name="Group 4" transform="translate(65.131 0.001)">
          <path id="Path_13" data-name="Path 13" d="M508.977,311.477c-.026-.992.021-1.045.994-1q3.81.15,7.623.291v.174c-.775.042-1.548.094-2.323.125q-2.786.11-5.586.2c-.348.01-.2.1-.061.216a.432.432,0,0,1-.648-.005Z" transform="translate(-508.716 -310.467)" fill="#fb2b00"/>
          <path id="Path_14" data-name="Path 14" d="M507.764,316.27h.653l.959.033c.625.157,1.269-.028,1.9.106a44.78,44.78,0,0,1,5.506.284q-4.353.174-8.706.329c-.174,0-.437.111-.522-.077A.533.533,0,0,1,507.764,316.27Z" transform="translate(-507.503 -315.26)" fill="#fb2b00"/>
        </g>
      </g>
      <path id="Path_15" data-name="Path 15" d="M520.136,316.466a4.835,4.835,0,0,1-1.9-.106A5.832,5.832,0,0,1,520.136,316.466Z" transform="translate(1268.372 -256.885)" fill="#fb2b00"/>
      <text id="Al-Jarallah" transform="translate(1734.073 62.912)" fill="#fb2b00" font-size="10" font-family="ElMessiri-Bold, El Messiri" font-weight="700"><tspan x="0" y="0">Al-Jarallah</tspan></text>
    </g>
  </g>
</svg>
